<?xml version="1.0" encoding="utf-8"?>
<!-- Generator: Adobe Illustrator 25.4.1, SVG Export Plug-In . SVG Version: 6.00 Build 0)  -->
<svg version="1.1" id="Graphic_Elements" xmlns="http://www.w3.org/2000/svg" xmlns:xlink="http://www.w3.org/1999/xlink" x="0px"
	 y="0px" viewBox="0 0 1200 1200" style="enable-background:new 0 0 1200 1200;" xml:space="preserve">
<style type="text/css">
	.st0{fill:#FFFFFE;}
	.st1{fill:#D4EDF4;}
	.st2{opacity:0;}
	.st3{fill:#6E5E4E;}
</style>
<path class="st0" d="M554,134.5l-0.6,46.5c-63.1,8.4-115.9,21-122.7,106.9S420.3,442.6,475.3,446c-24.1,6.9-44.7,41.3-6.9,65.3
	c-10.3,13.8-41.2,55-41.2,96.3s-13.8,460.5,3.4,491.5s223.4,79,312.8-3.4c6.9-41.2,20.6-464,20.6-488s-13.7-82.5-37.8-99.7
	c30.9-20.6,10.3-55-6.8-61.9c27.5-3.4,61.8-34.4,58.4-103.1s4.3-155.4-116-158.8l-1.3-52L554,134.5"/>
<path class="st1" d="M712.7,192.6c67.1,23.9,62.2,93.3,65.1,150.4c3.4,68.7-30.9,99.7-58.4,103.1c17.2,6.9,37.8,41.3,6.8,61.9
	c24.1,17.2,37.8,75.6,37.8,99.7s-13.7,446.8-20.6,488c-89.4,82.5-295.6,34.4-312.8,3.4s-3.4-450.2-3.4-491.5s30.9-82.5,41.2-96.3
	c-37.8-24-17.2-58.4,6.9-65.3c-55-3.4-51.6-72.2-44.7-158.1c4.8-59.9,31.9-84.1,69.2-96.2C514.3,211.2,671.7,215.1,712.7,192.6"/>
<g class="st2">
	<path d="M554,134.5l-0.6,46.5c-63.1,8.4-115.9,21-122.7,106.9S420.3,442.6,475.3,446c-24.1,6.9-44.7,41.3-6.9,65.3
		c-10.3,13.8-41.2,55-41.2,96.3s-13.8,460.5,3.4,491.5s223.4,79,312.8-3.4c6.9-41.2,20.6-464,20.6-488s-13.7-82.5-37.8-99.7
		c30.9-20.6,10.3-55-6.8-61.9c27.5-3.4,61.8-34.4,58.4-103.1s4.3-155.4-116-158.8l-1.3-52L554,134.5z M502.8,446
		c17.2,4.6,168.4,4.6,185.6,1.2 M619.7,604.2l-10.3,457.1c30.9,17.2,92.8,0,99.7-17.2l6.9-446.8
		C715.9,597.3,647.2,607.6,619.7,604.2L619.7,604.2z"/>
</g>
<path class="st3" d="M594.7,1150c-22.6,0-45.1-1.8-67.4-5.3c-44.5-7.1-94-22.7-104.4-41.4c-10.9-19.6-12.5-142.4-5.7-438.1
	c0.7-29,1.1-50,1.1-57.7c0-38.3,24.3-75.8,37.7-94.3c-17.3-14.3-18.1-29.9-16.9-38.5c1.4-9.5,6.4-18.5,13.5-25.4
	c-5.9-2.9-11.2-6.9-15.5-11.9c-23.3-26.9-21.1-79.2-15.4-150.2c7-87.7,59.2-104.8,122.8-113.9l0.6-47.4l123.8-2.9l1.3,52.6
	c110.4,6.9,113.2,85.8,115.5,149.5c0.2,5.8,0.4,11.6,0.7,17.3c2.9,58.6-20.6,94-48.2,107c6.9,7.6,11.2,17.2,12.4,27.4
	c1.2,11.8-2.7,22.6-11.2,31.3c21.6,24.4,33.3,75.9,33.3,99.3s-13.6,446.7-20.8,489.5l-0.5,3l-2.2,2
	C707.3,1140.9,644.4,1150,594.7,1150z M562.7,143.1l-0.7,45.6l-7.5,1c-63.5,8.5-108.9,20.5-115.1,98.9
	c-4.3,53.4-9.1,113.9,11.2,137.3c6,7,14.3,10.7,25.3,11.4l1.9,17.2c-10.6,3-19.7,12.8-21.1,22.8c-1.8,12.2,8,21.3,16.6,26.7l8,5.1
	l-5.7,7.6c-9.8,13-39.5,52.6-39.5,91c0,7.8-0.5,28.9-1.2,58c-2.3,100.4-9.3,406,3.5,429.1c4.6,8.2,39,24.1,91.8,32.6
	c32.8,5.2,143.4,18,205-36.1c6.9-54.7,20.1-461.3,20.1-483.6c0-23.9-14.1-78.2-34.1-92.5l-10.4-7.4l10.6-7.1
	c8.8-5.9,12.8-13.2,11.9-21.9c-1.1-10.9-10-21.6-17.2-24.5l-28.6-11.5l2.6,13.1c-17.8,3.5-171,3.7-189.6-1.3l4.5-17
	c14.2,3.8,163.5,4.6,181.6,1l0.5,2.6l31.1-3.9c19-2.4,54.2-25.1,50.7-94c-0.3-5.7-0.5-11.6-0.7-17.5c-2.4-66.9-4.7-130-106.8-133
	l-8.3-0.2L652,141L562.7,143.1z M642.4,1077.1c-13.6,0-26.8-2.4-37.3-8.2l-4.6-2.6l10.7-472.1l9.7,1.2c26,3.2,93.2-6.8,93.8-6.9
	l10.2-1.5l-7.1,458.8l-0.6,1.5c-4.3,10.9-18.9,18-30.4,22.1C672.6,1074.4,657.5,1077,642.4,1077.1L642.4,1077.1z M618.3,1055.7
	c17.2,6.7,43.7,3.9,62.7-2.8c12.3-4.4,17.6-8.9,19.3-11.1l6.7-434.3c-17.8,2.4-54.9,6.9-78.7,6.2L618.3,1055.7z"/>
<path class="st0" d="M681.5,147c-30.9,13.8-120.3,13.8-144.4,0c-13.3-7.6-3.4-79-3.4-79C592.2,47.3,685,68,685,68L681.5,147"/>
<g class="st2">
	<path d="M681.5,147c-30.9,13.8-120.3,13.8-144.4,0c-13.3-7.6-3.4-79-3.4-79C592.2,47.3,685,68,685,68L681.5,147z"/>
</g>
<path class="st3" d="M607.3,166.1c-30.9,0-61.2-3.8-74.5-11.4c-15.3-8.7-12.7-52.6-7.8-87.9l0.7-5.3l5-1.8
	c60.1-21.2,152.2-1.2,156.1-0.3l7.2,1.6l-4,91.8l-5,2.2C668.6,162.4,637.6,166.1,607.3,166.1z M542,139.6
	c21.2,11.5,99.1,11.8,131,1.2l2.9-65.8c-21.7-4-88-14.4-134.2-0.5C538,104.7,538.1,134,542,139.6z M541.5,139.4L541.5,139.4z"/>
<path class="st0" d="M500.4,237.6c11.2-14.4,43.8,18.3,43.8,18.3s-43.8,114.5-18.8,137.5s6.3,32.1,6.3,32.1s-56.4-13.8-62.6-32.1
	S475.3,269.6,500.4,237.6"/>
<path class="st0" d="M507.4,462.1v68.7c0,0,5.7,13.8-11.3,22.9s-39.5,50.4-39.5,91.6s-22.6,417,0,430.8s56.4,18.4,56.4,18.4
	s-16.9-77.9-16.9-96.3s16.9-348.2,22.6-366.6s39.5-73.3,39.5-73.3l-16.9-22.9c0,0,11.3-45.8,22.6-59.6s-28.2-22.9-28.2-22.9
	L507.4,462.1"/>
<g class="st2">
	<path d="M496,514.8c24,10.3,168.4,10.3,195.9,3.5 M471.9,593.8c24.1,10.3,89.4,13.8,89.4,13.8l-10.3,439.9
		c-10.3,10.3-75.6,13.8-89.3-3.4C461.6,1044.1,475.3,617.9,471.9,593.8L471.9,593.8z"/>
</g>
<path class="st3" d="M507.2,1064.9c-3.1,0-6.1-0.1-8.8-0.2c-15.1-0.8-34.9-4.1-43.6-15.1l-2-2.5l0.1-3.2
	c5.5-171,12.8-431.6,10.4-448.7l-2.2-15.5l14.4,6.2c18.6,8,68.6,12.1,86.4,13.1l8.5,0.5l-10.6,452l-2.5,2.5
	C548.7,1062.1,525.2,1064.9,507.2,1064.9z M470.5,1040.4c3.8,2.6,11.6,5.2,24.5,6.4c20.8,1.9,40.1-1.3,47.3-4.2l10-426.8
	c-15.5-1.1-48.7-4-71.1-9.8C482,677.3,472.2,986.5,470.5,1040.4z M605.5,531.8c-4.4,0-8.7,0-12.9-0.1c-24.4-0.2-83.1-1.6-100-8.9
	l6.9-16.1c21.2,9.1,162.9,9.9,190.3,3l4.2,17.1C679.7,530.3,641.3,531.8,605.5,531.8L605.5,531.8z"/>
</svg>
