<svg xmlns="http://www.w3.org/2000/svg" width="700" height="450"><rect width="700" height="450" x="0" y="0" fill="#FFFFFF" id="background"/><g id="viz"><g transform="translate(0,0)"><g transform="translate(100,20)"><g id="returning" fill="#ff7f0e"><rect x="2.9848229342327386" y="121.32355929004824" width="33.70362563237774" height="283.67644070995175"/><rect x="39.67327150084319" y="119.97823780888135" width="33.70362563237774" height="285.0217621911187"/><rect x="76.36172006745365" y="122.30806087052514" width="33.70362563237774" height="282.69193912947486"/><rect x="113.05016863406411" y="142.08349463658388" width="33.70362563237774" height="262.91650536341615"/><rect x="149.73861720067455" y="179.26212291572492" width="33.70362563237774" height="225.73787708427508"/><rect x="186.427065767285" y="239.22736773147608" width="33.70362563237774" height="165.77263226852392"/><rect x="223.11551433389548" y="278.61934496745823" width="33.70362563237774" height="126.38065503254177"/><rect x="259.8039629005059" y="276.19609507059346" width="33.70362563237774" height="128.80390492940654"/><rect x="296.49241146711637" y="233.0020702802766" width="33.70362563237774" height="171.9979297197234"/><rect x="333.18086003372684" y="207.29628196435493" width="33.70362563237774" height="197.70371803564507"/><rect x="369.86930860033726" y="209.4286110339237" width="33.70362563237774" height="195.5713889660763"/><rect x="406.55775716694774" y="228.75404726222007" width="33.70362563237774" height="176.24595273777993"/><rect x="443.2462057335582" y="246.52910985504718" width="33.70362563237774" height="158.47089014495282"/><rect x="479.93465430016863" y="270.1347716225696" width="33.70362563237774" height="134.8652283774304"/><rect x="516.623102866779" y="282.5780681034737" width="33.70362563237774" height="122.4219318965263"/><rect x="553.3115514333896" y="290.3250181639808" width="33.70362563237774" height="114.67498183601919"/></g><g id="renting" fill="#1f77b4"><rect x="2.9848229342327386" y="23.230198391359426" width="33.70362563237774" height="98.09336089868879"/><rect x="39.67327150084319" y="28.414170963176147" width="33.70362563237774" height="91.56406684570521"/><rect x="76.36172006745365" y="31.57769221992273" width="33.70362563237774" height="90.73036865060243"/><rect x="113.05016863406411" y="56.79529209067767" width="33.70362563237774" height="85.28820254590624"/><rect x="149.73861720067455" y="110.32253079666437" width="33.70362563237774" height="68.93959211906053"/><rect x="186.427065767285" y="187.32196802403277" width="33.70362563237774" height="51.90539970744328"/><rect x="223.11551433389548" y="230.35516554558296" width="33.70362563237774" height="48.264179421875326"/><rect x="259.8039629005059" y="209.48079084086396" width="33.70362563237774" height="66.7153042297295"/><rect x="296.49241146711637" y="125.05328700493625" width="33.70362563237774" height="107.94878327534036"/><rect x="333.18086003372684" y="76.25613999793475" width="33.70362563237774" height="131.0401419664202"/><rect x="369.86930860033726" y="73.23271351262022" width="33.70362563237774" height="136.19589752130344"/><rect x="406.55775716694774" y="102.51194120210857" width="33.70362563237774" height="126.24210606011144"/><rect x="443.2462057335582" y="132.89645568689227" width="33.70362563237774" height="113.63265416815489"/><rect x="479.93465430016863" y="169.85282804938632" width="33.70362563237774" height="100.28194357318324"/><rect x="516.623102866779" y="185.47911889563278" width="33.70362563237774" height="97.09894920784092"/><rect x="553.3115514333896" y="201.8891829986495" width="33.70362563237774" height="88.4358351653313"/></g><g id="xAxis" transform="translate(0,405)" fill="none" font-size="10" font-family="sans-serif" text-anchor="middle"><path class="domain" stroke="currentColor" d="M0,0H590"/><g class="tick" opacity="1" transform="translate(19.836635750421607,0)"><line stroke="currentColor" y2="6"/><text fill="currentColor" y="9" dy="0.71em">5</text></g><g class="tick" opacity="1" transform="translate(56.52508431703206,0)"><line stroke="currentColor" y2="6"/><text fill="currentColor" y="9" dy="0.71em">6</text></g><g class="tick" opacity="1" transform="translate(93.21353288364251,0)"><line stroke="currentColor" y2="6"/><text fill="currentColor" y="9" dy="0.71em">7</text></g><g class="tick" opacity="1" transform="translate(129.90198145025298,0)"><line stroke="currentColor" y2="6"/><text fill="currentColor" y="9" dy="0.71em">8</text></g><g class="tick" opacity="1" transform="translate(166.59043001686342,0)"><line stroke="currentColor" y2="6"/><text fill="currentColor" y="9" dy="0.71em">9</text></g><g class="tick" opacity="1" transform="translate(203.27887858347387,0)"><line stroke="currentColor" y2="6"/><text fill="currentColor" y="9" dy="0.71em">10</text></g><g class="tick" opacity="1" transform="translate(239.96732715008434,0)"><line stroke="currentColor" y2="6"/><text fill="currentColor" y="9" dy="0.71em">11</text></g><g class="tick" opacity="1" transform="translate(276.65577571669473,0)"><line stroke="currentColor" y2="6"/><text fill="currentColor" y="9" dy="0.71em">12</text></g><g class="tick" opacity="1" transform="translate(313.34422428330527,0)"><line stroke="currentColor" y2="6"/><text fill="currentColor" y="9" dy="0.71em">13</text></g><g class="tick" opacity="1" transform="translate(350.0326728499157,0)"><line stroke="currentColor" y2="6"/><text fill="currentColor" y="9" dy="0.71em">14</text></g><g class="tick" opacity="1" transform="translate(386.7211214165261,0)"><line stroke="currentColor" y2="6"/><text fill="currentColor" y="9" dy="0.71em">15</text></g><g class="tick" opacity="1" transform="translate(423.40956998313663,0)"><line stroke="currentColor" y2="6"/><text fill="currentColor" y="9" dy="0.71em">16</text></g><g class="tick" opacity="1" transform="translate(460.09801854974705,0)"><line stroke="currentColor" y2="6"/><text fill="currentColor" y="9" dy="0.71em">17</text></g><g class="tick" opacity="1" transform="translate(496.78646711635747,0)"><line stroke="currentColor" y2="6"/><text fill="currentColor" y="9" dy="0.71em">18</text></g><g class="tick" opacity="1" transform="translate(533.4749156829679,0)"><line stroke="currentColor" y2="6"/><text fill="currentColor" y="9" dy="0.71em">19</text></g><g class="tick" opacity="1" transform="translate(570.1633642495784,0)"><line stroke="currentColor" y2="6"/><text fill="currentColor" y="9" dy="0.71em">20</text></g></g><g id="yAxis" fill="none" font-size="10" font-family="sans-serif" text-anchor="end"><path class="domain" stroke="currentColor" d="M0,405V0"/><g class="tick" opacity="1" transform="translate(0,405)"><line stroke="currentColor" x2="-6"/><text fill="currentColor" x="-9" dy="0.32em">0.00</text></g><g class="tick" opacity="1" transform="translate(0,376.0714285714286)"><line stroke="currentColor" x2="-6"/><text fill="currentColor" x="-9" dy="0.32em">0.01</text></g><g class="tick" opacity="1" transform="translate(0,347.14285714285717)"><line stroke="currentColor" x2="-6"/><text fill="currentColor" x="-9" dy="0.32em">0.02</text></g><g class="tick" opacity="1" transform="translate(0,318.2142857142858)"><line stroke="currentColor" x2="-6"/><text fill="currentColor" x="-9" dy="0.32em">0.03</text></g><g class="tick" opacity="1" transform="translate(0,289.2857142857143)"><line stroke="currentColor" x2="-6"/><text fill="currentColor" x="-9" dy="0.32em">0.04</text></g><g class="tick" opacity="1" transform="translate(0,260.35714285714283)"><line stroke="currentColor" x2="-6"/><text fill="currentColor" x="-9" dy="0.32em">0.05</text></g><g class="tick" opacity="1" transform="translate(0,231.42857142857147)"><line stroke="currentColor" x2="-6"/><text fill="currentColor" x="-9" dy="0.32em">0.06</text></g><g class="tick" opacity="1" transform="translate(0,202.5)"><line stroke="currentColor" x2="-6"/><text fill="currentColor" x="-9" dy="0.32em">0.07</text></g><g class="tick" opacity="1" transform="translate(0,173.57142857142858)"><line stroke="currentColor" x2="-6"/><text fill="currentColor" x="-9" dy="0.32em">0.08</text></g><g class="tick" opacity="1" transform="translate(0,144.64285714285717)"><line stroke="currentColor" x2="-6"/><text fill="currentColor" x="-9" dy="0.32em">0.09</text></g><g class="tick" opacity="1" transform="translate(0,115.71428571428571)"><line stroke="currentColor" x2="-6"/><text fill="currentColor" x="-9" dy="0.32em">0.10</text></g><g class="tick" opacity="1" transform="translate(0,86.78571428571429)"><line stroke="currentColor" x2="-6"/><text fill="currentColor" x="-9" dy="0.32em">0.11</text></g><g class="tick" opacity="1" transform="translate(0,57.85714285714292)"><line stroke="currentColor" x2="-6"/><text fill="currentColor" x="-9" dy="0.32em">0.12</text></g><g class="tick" opacity="1" transform="translate(0,28.92857142857146)"><line stroke="currentColor" x2="-6"/><text fill="currentColor" x="-9" dy="0.32em">0.13</text></g><g class="tick" opacity="1" transform="translate(0,0)"><line stroke="currentColor" x2="-6"/><text fill="currentColor" x="-9" dy="0.32em">0.14</text></g></g><text y="401" x="590" text-anchor="end" style="font-family: Arial, sans-serif; font-size: 12px; fill: rgb(123, 123, 123); font-weight: bold;">service_hour</text></g></g></g></svg>